<svg xmlns="http://www.w3.org/2000/svg" width="1080" height="1080" viewBox="0 0 1080 1080" version="1.1">
	<path d="M 254.762 56.942 C 242.435 60.883, 232.217 70.123, 226.217 82.758 C 222.928 89.685, 222.511 91.489, 222.155 100.342 C 221.669 112.442, 223.607 120.546, 228.954 128.779 C 241.500 148.097, 263.005 156.051, 283.561 148.979 L 288.957 147.122 306.229 164.631 C 315.728 174.261, 323.631 182.502, 323.791 182.944 C 323.952 183.386, 323.006 185.042, 321.690 186.624 C 312.701 197.429, 297.480 223.569, 290.371 240.410 C 278.627 268.234, 273.751 288.265, 269.379 326.655 C 268.935 330.554, 268.558 330.984, 263.240 333.655 C 245.318 342.656, 234.339 364.901, 237.922 384.953 C 241.148 403.006, 253.952 417.812, 270.855 423.036 C 276.865 424.893, 280.390 425, 335.605 425 L 394 425 394 440.938 L 394 456.875 347.250 457.251 C 301.837 457.617, 300.276 457.694, 292.684 459.946 L 284.869 462.265 281.684 459.307 C 273.563 451.762, 265.589 447.010, 255 443.403 C 246.751 440.593, 228.862 440.752, 219.500 443.718 C 200.828 449.634, 184.304 465.739, 178.572 483.610 L 176.933 488.719 169.836 489.379 C 143.220 491.852, 120.703 511.293, 113.972 537.609 C 112.498 543.372, 112 548.656, 112 558.526 L 112 571.732 106.165 573.860 C 88.769 580.202, 74.210 595.487, 67.930 614 C 64.842 623.106, 64.190 638.262, 66.450 648.422 C 70.624 667.181, 83.550 683.853, 100.150 691.888 C 104.823 694.149, 109.401 696, 110.323 696 C 111.860 696, 112 698.874, 112 730.378 L 112 764.756 106.129 766.952 C 92.015 772.230, 78.903 784.268, 72.074 798.218 C 66.830 808.931, 65 816.388, 65 827.050 C 65 840.984, 68.826 853.294, 76.521 864.115 C 79.797 868.722, 79.803 868.751, 80.151 882.690 C 80.480 895.839, 80.655 896.885, 83.161 900.669 C 89.770 910.650, 102.797 910.361, 109.726 900.078 C 111.886 896.873, 112 895.785, 112 878.352 L 112 860 127.500 860 L 143 860 143 877.288 C 143 893.245, 143.173 894.915, 145.250 898.980 C 148.532 905.403, 151.916 907.500, 159 907.500 C 165.322 907.500, 168.516 905.864, 172.438 900.619 C 174.249 898.197, 174.540 896.137, 174.829 883.706 L 175.159 869.551 178.454 865.026 C 186.313 854.232, 190.330 841.788, 190.407 828 C 190.471 816.687, 189.034 810.239, 184.057 799.500 C 177.388 785.110, 165.218 773.523, 150.484 767.535 L 144.500 765.103 144.237 730.791 L 143.975 696.478 149.029 694.683 C 176.333 684.986, 194.377 654.404, 189.970 625.293 C 186.376 601.544, 169.813 580.777, 148.775 573.642 L 144.500 572.192 144.500 558.346 C 144.500 545.896, 144.733 544.027, 146.813 539.805 C 151.557 530.174, 161.081 523.363, 171.277 522.311 L 176.643 521.757 178.965 528.128 C 185.186 545.196, 200.104 560.312, 216.388 566.047 L 221.500 567.847 221.758 626.405 L 222.016 684.963 215.809 688.096 C 203.497 694.311, 193.569 708.235, 190.934 722.984 C 188.285 737.806, 193.627 754.409, 204.563 765.346 C 210.150 770.932, 219.518 776.431, 225.361 777.554 C 228.168 778.093, 231.299 782.192, 254.984 816.329 C 271.044 839.475, 283.704 856.687, 287.147 860.056 C 293.307 866.083, 302.044 870.973, 311.500 873.685 C 316.764 875.194, 324.097 875.449, 371.250 875.758 L 425 876.111 425 892.056 L 425 908 401.750 908.012 C 376.210 908.025, 372.053 908.644, 361.493 914.004 C 336.843 926.515, 325.076 957.745, 335.009 984.293 C 341.636 1002.006, 357.344 1015.660, 375.500 1019.489 C 386.012 1021.706, 684.988 1021.706, 695.500 1019.489 C 715.022 1015.372, 731.143 1000.318, 737.187 980.560 C 739.701 972.342, 740.105 959.264, 738.100 951 C 733.743 933.044, 720.436 917.689, 703.340 910.888 C 697.864 908.710, 695.894 908.543, 671.750 908.208 L 646 907.851 646 891.857 L 646 875.864 698.250 876.055 C 755.831 876.265, 755.113 876.327, 768.510 869.974 C 782.321 863.424, 786.439 858.764, 816.079 816.147 C 839.689 782.199, 842.834 778.093, 845.639 777.554 C 851.482 776.431, 860.850 770.932, 866.437 765.346 C 877.373 754.409, 882.715 737.806, 880.066 722.984 C 877.431 708.235, 867.503 694.311, 855.191 688.096 L 848.984 684.963 849.242 626.405 L 849.500 567.847 854.612 566.047 C 870.896 560.312, 885.814 545.196, 892.035 528.128 L 894.357 521.757 899.723 522.311 C 909.919 523.363, 919.443 530.174, 924.187 539.805 C 926.267 544.027, 926.500 545.896, 926.500 558.346 L 926.500 572.192 922.225 573.642 C 910.902 577.482, 898.695 587.137, 891.671 597.809 C 872.609 626.769, 878.189 663.269, 905.024 685.150 C 909.819 689.060, 919.742 694.418, 924.263 695.539 L 927.026 696.223 926.763 730.723 L 926.500 765.224 921.114 767.232 C 913.096 770.223, 901.162 778.800, 895.637 785.544 C 890.144 792.247, 883.895 804.750, 881.914 813 C 879.794 821.829, 880.246 836.223, 882.919 844.988 C 885.596 853.768, 888.015 858.802, 892.546 865.026 L 895.841 869.551 896.171 883.706 C 896.460 896.137, 896.751 898.197, 898.562 900.619 C 902.484 905.864, 905.678 907.500, 912 907.500 C 919.084 907.500, 922.468 905.403, 925.750 898.980 C 927.827 894.915, 928 893.245, 928 877.288 L 928 860 943.500 860 L 959 860 959 878.352 C 959 895.785, 959.114 896.873, 961.274 900.078 C 968.203 910.361, 981.230 910.650, 987.839 900.669 C 990.350 896.877, 990.519 895.860, 990.837 882.575 C 991.123 870.675, 991.456 868.191, 992.993 866.500 C 996.605 862.526, 1002.035 851.182, 1003.997 843.513 C 1006.423 834.027, 1006.625 820.862, 1004.474 812.460 C 999.194 791.836, 983.651 773.975, 964.871 766.952 L 959 764.756 959 730.378 C 959 698.874, 959.140 696, 960.677 696 C 961.599 696, 966.177 694.149, 970.850 691.888 C 985.785 684.659, 997.632 670.604, 1003.627 653 C 1006.528 644.482, 1006.266 622.825, 1003.156 614 C 996.536 595.219, 982.184 580.185, 964.835 573.860 L 959 571.732 959 558.526 C 959 548.656, 958.502 543.372, 957.028 537.609 C 950.287 511.253, 927.835 491.857, 901.201 489.382 L 894.141 488.726 892.499 483.613 C 886.984 466.440, 871.856 451.248, 853.242 444.189 C 847.371 441.963, 844.885 441.624, 834 441.566 C 823.455 441.510, 820.464 441.858, 814.875 443.790 C 806.894 446.548, 798.492 451.483, 791.274 457.649 L 785.934 462.211 778.217 459.919 C 770.747 457.701, 769.003 457.615, 723.750 457.251 L 677 456.875 677 440.938 L 677 425 735.395 425 C 790.839 425, 794.110 424.900, 800.145 423.015 C 808.301 420.468, 812.907 417.615, 819.689 410.908 C 830.324 400.392, 835.551 384.050, 833.034 369.180 C 830.529 354.376, 820.636 340.378, 808.262 334.132 C 801.350 330.643, 802.239 332.963, 799.971 312.500 C 795.278 270.144, 778.863 227.972, 752.793 191.289 L 746.766 182.808 764.133 165.162 C 773.685 155.457, 781.539 147.399, 781.586 147.255 C 781.633 147.112, 784.184 147.859, 787.253 148.915 C 795.842 151.870, 802.518 152.356, 810.765 150.626 C 823.988 147.851, 834.367 140.603, 842.046 128.779 C 847.393 120.546, 849.331 112.442, 848.845 100.342 C 848.490 91.501, 848.070 89.680, 844.804 82.803 C 835.889 64.031, 819.684 54.197, 799.272 55.173 C 791.595 55.540, 789.320 56.101, 782.631 59.277 C 773.704 63.517, 765.082 71.525, 760.779 79.575 C 755.117 90.166, 753.474 104.156, 756.618 115 C 757.496 118.025, 758.278 121.427, 758.357 122.560 C 758.455 123.968, 753.231 130.083, 741.845 141.890 L 725.189 159.161 716.845 151.469 C 699.674 135.642, 680.699 122.801, 658.500 111.987 C 640.939 103.432, 628.313 98.752, 611.068 94.409 C 585.741 88.030, 579.941 87.500, 535.500 87.500 C 491.059 87.500, 485.259 88.030, 459.932 94.409 C 420.800 104.265, 381.341 125.708, 353.224 152.397 L 345.948 159.303 329.224 141.961 C 317.788 130.103, 312.545 123.968, 312.643 122.560 C 312.722 121.427, 313.504 118.025, 314.382 115 C 319.888 96.010, 311.557 73.866, 294.697 62.675 C 283.297 55.108, 267.564 52.849, 254.762 56.942 M 265.115 88.028 C 263.254 88.454, 260.104 90.429, 258.115 92.418 C 254.677 95.856, 254.500 96.364, 254.500 102.767 C 254.500 110.229, 256.099 113.399, 261.480 116.608 C 265.628 119.081, 273.241 118.953, 276.754 116.350 C 282.073 112.410, 284.224 108.065, 283.753 102.209 C 282.954 92.250, 274.565 85.867, 265.115 88.028 M 797.684 88.489 C 792.885 90.150, 790.102 92.607, 788.362 96.718 C 785.467 103.558, 787.181 110.450, 792.994 115.341 C 797.242 118.916, 802.046 119.636, 807.570 117.526 C 819.110 113.119, 820.507 97.258, 810 89.943 C 806.449 87.471, 802.104 86.958, 797.684 88.489 M 400.332 555.851 C 373.928 564.976, 371.668 602.360, 396.776 614.689 C 402.350 617.426, 403.005 617.509, 421.750 617.842 L 441 618.184 441 586.092 L 441 554 423.250 554.033 C 408.867 554.059, 404.520 554.404, 400.332 555.851 M 473 586 L 473 618 564.949 618 L 656.898 618 659.409 614.708 C 663.420 609.449, 666.813 601.072, 668.100 593.250 C 670.087 581.175, 666.590 566.707, 659.409 557.292 L 656.898 554 564.949 554 L 473 554 473 586" stroke="none" fill="black" fill-rule="evenodd"/>
</svg>