<svg xmlns="http://www.w3.org/2000/svg" width="29" height="29" fill="none" viewBox="0 0 29 29"><g clip-path="url(#clip0)"><path fill="#fff" d="M28.275 12.557L28.2728 12.5548L16.443 0.725488C15.9388 0.221032 15.2684 -0.0566406 14.5553 -0.0566406C13.8422 -0.0566406 13.1718 0.221032 12.6674 0.725488L0.843827 12.5488C0.839844 12.5528 0.835641 12.557 0.831879 12.561C-0.203584 13.6024 -0.201814 15.2921 0.836968 16.3309C1.31156 16.8057 1.93814 17.0805 2.60832 17.1095C2.63575 17.1121 2.66319 17.1135 2.69085 17.1135H3.16211V25.8189C3.16211 27.5418 4.56397 28.9434 6.28687 28.9434H10.915C11.3843 28.9434 11.7646 28.5629 11.7646 28.0938V21.2686C11.7646 20.4825 12.4043 19.8431 13.1904 19.8431H15.9202C16.7063 19.8431 17.3457 20.4825 17.3457 21.2686V28.0938C17.3457 28.5629 17.7261 28.9434 18.1954 28.9434H22.8235C24.5466 28.9434 25.9483 27.5418 25.9483 25.8189V17.1135H26.3855C27.0984 17.1135 27.7687 16.8358 28.2734 16.3311C29.3133 15.2908 29.3138 13.598 28.275 12.557ZM27.0718 15.1297C26.8884 15.3131 26.6446 15.4142 26.3855 15.4142H25.0987C24.6294 15.4142 24.2491 15.7946 24.2491 16.2639V25.8189C24.2491 26.6048 23.6096 27.2442 22.8235 27.2442H19.045V21.2686C19.045 19.5457 17.6433 18.1438 15.9202 18.1438H13.1904C11.4673 18.1438 10.0654 19.5457 10.0654 21.2686V27.2442H6.28687C5.50098 27.2442 4.86134 26.6048 4.86134 25.8189V16.2639C4.86134 15.7946 4.481 15.4142 4.01173 15.4142H2.74704C2.73377 15.4134 2.72071 15.4127 2.70722 15.4125C2.45411 15.408 2.2167 15.3076 2.03881 15.1295C1.66047 14.7512 1.66047 14.1354 2.03881 13.7568L2.03992 13.7557L13.8692 1.92689C14.0524 1.74347 14.296 1.64258 14.5553 1.64258C14.8144 1.64258 15.058 1.74347 15.2414 1.92689L27.068 13.7533C27.0698 13.7551 27.0718 13.7568 27.0736 13.7586C27.4499 14.1376 27.4493 14.752 27.0718 15.1297Z"/></g><defs><clipPath id="clip0"><rect width="29" height="29" fill="#fff"/></clipPath></defs></svg>