<svg width="24" height="17" viewBox="0 0 24 17" fill="none" xmlns="http://www.w3.org/2000/svg">
<path d="M23.0063 15.2378C23.0063 15.8517 22.5084 16.3485 21.8956 16.3485H12.9544C12.6599 16.3485 12.3774 16.2315 12.1691 16.0232C11.9608 15.8149 11.8438 15.5324 11.8438 15.2378C11.8438 14.9432 11.9608 14.6607 12.1691 14.4524C12.3774 14.2442 12.6599 14.1271 12.9544 14.1271H21.8956C22.5095 14.1271 23.0063 14.6239 23.0063 15.2378Z" fill="#48834B"/>
<path d="M23.0063 8.53471C23.0063 9.14865 22.5084 9.64538 21.8956 9.64538H1.79194C1.49738 9.64538 1.21487 9.52836 1.00658 9.32007C0.798291 9.11178 0.681274 8.82928 0.681274 8.53471C0.681274 8.24014 0.798291 7.95764 1.00658 7.74935C1.21487 7.54106 1.49738 7.42404 1.79194 7.42404H21.8956C22.5095 7.42404 23.0063 7.92189 23.0063 8.53471Z" fill="#48834B"/>
<path d="M21.8956 2.94229C22.1902 2.94229 22.4727 2.82527 22.681 2.61698C22.8893 2.40869 23.0063 2.12618 23.0063 1.83162C23.0063 1.53705 22.8893 1.25455 22.681 1.04625C22.4727 0.837964 22.1902 0.720947 21.8956 0.720947H8.48945C8.34359 0.720947 8.19916 0.749676 8.06441 0.805492C7.92966 0.861308 7.80722 0.943119 7.70408 1.04625C7.60095 1.14939 7.51914 1.27183 7.46332 1.40658C7.4075 1.54133 7.37878 1.68576 7.37878 1.83162C7.37878 1.97747 7.4075 2.1219 7.46332 2.25665C7.51914 2.3914 7.60095 2.51384 7.70408 2.61698C7.80722 2.72011 7.92966 2.80192 8.06441 2.85774C8.19916 2.91356 8.34359 2.94229 8.48945 2.94229H21.8956Z" fill="#48834B"/>
</svg>
