<svg xmlns="http://www.w3.org/2000/svg" width="26" height="26" fill="none" viewBox="0 0 26 26"><path fill="#fff" d="M23.6065 1.625H12.1841C10.8644 1.625 9.79066 2.69875 9.79066 4.01846V11.3458L7.66975 10.2911C7.59814 10.2554 7.52534 10.2217 7.45195 10.1898C8.07462 9.53973 8.45845 8.659 8.45845 7.68999C8.45845 5.69543 6.83583 4.07262 4.84128 4.07262C2.84653 4.07262 1.22391 5.69543 1.22391 7.68999C1.22391 8.77385 1.70375 9.74742 2.4615 10.4109C1.06601 11.1961 0 12.7276 0 14.625V17.0726C0 18.1263 0.684158 19.0231 1.63174 19.3419V23.5998C1.63174 24.0203 1.97273 24.3615 2.39346 24.3615H7.2887C7.70943 24.3615 8.05042 24.0203 8.05042 23.5998V15.0414L10.4891 16.2605C11.4224 16.7271 12.6884 16.449 13.2608 15.3867H15.9919L13.1 23.3393C12.9562 23.7347 13.1603 24.1719 13.5556 24.3155C14.0075 24.4799 14.4094 24.1965 14.5318 23.86L17.613 15.3867H18.147L21.2597 23.8624C21.3779 24.184 21.7768 24.4839 22.2374 24.3147C22.6322 24.1697 22.8349 23.7321 22.6897 23.3372L19.7698 15.3867H23.6065C24.9007 15.3867 26 14.3427 26 12.9933V4.01846C26 2.66879 24.9007 1.625 23.6065 1.625ZM2.74734 7.68999C2.74734 6.53531 3.6866 5.59605 4.84108 5.59605C5.99576 5.59605 6.93501 6.53531 6.93501 7.68999C6.93501 8.84447 5.99576 9.78372 4.84108 9.78372C3.6866 9.78372 2.74734 8.84447 2.74734 7.68999ZM11.959 14.5722C11.957 14.5778 11.955 14.5835 11.9532 14.5893C11.9013 14.7343 11.7838 14.8565 11.64 14.9156C11.4879 14.9775 11.3167 14.9709 11.1705 14.8979C9.72203 14.1733 7.62909 13.1277 7.62909 13.1277C7.12366 12.875 6.52698 13.2432 6.52698 13.8091V22.8381H3.15518V18.7044C3.15518 18.2838 2.814 17.9426 2.39346 17.9426C1.91362 17.9426 1.52344 17.5525 1.52344 17.0726V14.625C1.52344 12.7637 3.03894 11.3074 4.84108 11.3074H5.51413C6.02472 11.3074 6.53471 11.4272 6.99036 11.6547C6.99036 11.6547 10.7686 13.5336 11.7309 14.0128C11.937 14.1152 12.035 14.3556 11.959 14.5722ZM24.4766 12.9933C24.4766 13.2259 24.3863 13.4443 24.2221 13.6086C24.0604 13.7704 23.836 13.8633 23.6065 13.8633H13.4265C13.4251 13.8591 13.4241 13.8549 13.4227 13.851L15.3131 10.0704C15.5012 9.69406 15.3488 9.23663 14.9725 9.04839C14.5964 8.86034 14.1388 9.01268 13.9506 9.38898L12.3383 12.6134C12.0377 12.4636 11.6884 12.2897 11.3141 12.1036V4.01846C11.3141 3.53882 11.7043 3.14844 12.1841 3.14844H23.6065C23.836 3.14844 24.0604 3.24127 24.2223 3.40353C24.3863 3.56738 24.4766 3.78578 24.4766 4.01846V12.9933Z"/><path fill="#fff" d="M21.9748 4.88849H13.8159C13.3951 4.88849 13.0542 5.22948 13.0542 5.65021C13.0542 6.07094 13.3951 6.41193 13.8159 6.41193H21.9748C22.3953 6.41193 22.7365 6.07094 22.7365 5.65021C22.7365 5.22948 22.3955 4.88849 21.9748 4.88849Z"/><path fill="#fff" d="M21.9748 7.74414H17.8952C17.4747 7.74414 17.1335 8.08513 17.1335 8.50586C17.1335 8.92659 17.4747 9.26758 17.8952 9.26758H21.9748C22.3953 9.26758 22.7365 8.92659 22.7365 8.50586C22.7365 8.08513 22.3955 7.74414 21.9748 7.74414Z"/><path fill="#fff" d="M21.9748 10.5998H17.8952C17.4747 10.5998 17.1335 10.9408 17.1335 11.3615C17.1335 11.782 17.4747 12.1232 17.8952 12.1232H21.9748C22.3953 12.1232 22.7365 11.782 22.7365 11.3615C22.7365 10.9408 22.3955 10.5998 21.9748 10.5998Z"/></svg>