<svg xmlns="http://www.w3.org/2000/svg" width="38" height="32" fill="none" viewBox="0 0 38 32"><path fill="#7E8979" d="M2.59192 0C1.159 0 0 1.13017 0 2.52591V29.4741C0 30.8698 1.159 32 2.59192 32H35.4081C36.841 32 38 30.8698 38 29.4741V2.52591C38 1.13017 36.841 0 35.4081 0H2.59192V0ZM3.45483 3.36736H34.5452V28.6326H30.229V26.9497H22.4548V28.6326H3.45483V3.36736V3.36736ZM19 10.1052C18.3128 10.1052 17.6537 10.3714 17.1678 10.8452C16.6819 11.3191 16.4089 11.9617 16.4089 12.6319C16.4089 13.302 16.6819 13.9447 17.1678 14.4185C17.6537 14.8923 18.3128 15.1585 19 15.1585C19.6872 15.1585 20.3463 14.8923 20.8322 14.4185C21.3181 13.9447 21.5911 13.302 21.5911 12.6319C21.5911 11.9617 21.3181 11.3191 20.8322 10.8452C20.3463 10.3714 19.6872 10.1052 19 10.1052ZM12.0919 13.0541C11.0184 13.0541 10.146 13.9033 10.146 14.947C10.1604 15.4403 10.3715 15.9086 10.7344 16.2526C11.0974 16.5965 11.5835 16.7889 12.0895 16.7889C12.5956 16.7889 13.0817 16.5965 13.4446 16.2526C13.8075 15.9086 14.0186 15.4403 14.0331 14.947C14.0331 13.9018 13.1638 13.0541 12.0919 13.0541V13.0541ZM25.9081 13.0541C25.6484 13.0469 25.3899 13.0905 25.1478 13.1824C24.9057 13.2744 24.6849 13.4127 24.4986 13.5892C24.3123 13.7658 24.1642 13.977 24.0631 14.2104C23.962 14.4437 23.9099 14.6945 23.9099 14.9478C23.9099 15.2011 23.962 15.4519 24.0631 15.6852C24.1642 15.9186 24.3123 16.1298 24.4986 16.3063C24.6849 16.4829 24.9057 16.6212 25.1478 16.7131C25.3899 16.8051 25.6484 16.8487 25.9081 16.8415C26.4135 16.8274 26.8934 16.6217 27.2458 16.2681C27.5982 15.9145 27.7954 15.4409 27.7954 14.9478C27.7954 14.4547 27.5982 13.9811 27.2458 13.6275C26.8934 13.2739 26.4135 13.0682 25.9081 13.0541ZM19 16.8415C17.1333 16.8415 15.1794 17.4606 14.0157 18.3947C13.3928 18.205 12.7444 18.1072 12.0919 18.1044C10.0114 18.1044 7.771 19.1775 7.771 20.5114V21.8948H30.229V20.5114C30.229 19.1775 27.9886 18.1044 25.9081 18.1044C25.2589 18.1044 24.5939 18.2094 23.9843 18.3947C22.8206 17.4606 20.8668 16.8415 19 16.8415Z"/></svg>